<svg version="1.1" id="Layer_1" xmlns="http://www.w3.org/2000/svg" xmlns:xlink="http://www.w3.org/1999/xlink" x="0px" y="0px"
	 width="100%" viewBox="0 0 165 149" enable-background="new 0 0 165 149" xml:space="preserve">
<path fill="#FEFEFE" opacity="1.000000" stroke="none" 
	d="
M1.000000,66.000000 
	C1.000000,44.000004 1.000000,22.500008 1.000000,1.000009 
	C55.999985,1.000006 110.999969,1.000006 165.999969,1.000003 
	C165.999969,50.666645 165.999969,100.333290 165.999985,149.999954 
	C111.000031,149.999969 56.000065,149.999969 1.000049,149.999985 
	C1.000000,122.166664 1.000000,94.333336 1.000000,66.000000 
M76.359154,140.186508 
	C75.300377,140.564392 74.241600,140.942261 73.182831,141.320145 
	C73.253746,141.527771 73.324661,141.735397 73.395576,141.943024 
	C77.780441,141.943024 82.165306,141.943024 87.937920,141.943024 
	C86.074883,140.693130 85.542168,140.335754 85.030060,139.087830 
	C85.039932,138.791061 85.049812,138.494308 85.907616,138.305573 
	C88.931053,138.288742 91.954491,138.271912 95.214119,138.513824 
	C95.481621,138.370773 95.749123,138.227722 96.668938,137.856003 
	C98.487755,137.038544 100.306572,136.221085 102.810974,135.229492 
	C105.161156,133.455643 107.511337,131.681778 110.422256,130.149124 
	C110.961967,130.432404 111.501686,130.715698 112.303322,131.316025 
	C115.227592,129.566971 118.151863,127.817917 121.693466,125.800476 
	C123.688210,123.591705 125.682945,121.382935 128.290024,119.013184 
	C130.477310,115.658531 132.664612,112.303871 135.391876,108.490921 
	C136.082764,105.713112 139.976242,103.457634 136.774536,99.308815 
	C137.327148,98.246246 137.879745,97.183670 138.959122,95.708733 
	C139.650711,94.018196 140.342300,92.327660 141.275894,90.621521 
	C141.275894,90.621521 141.153641,90.276344 141.459473,89.571266 
	C141.414352,89.069427 141.369247,88.567581 141.688461,87.270355 
	C141.756577,85.540100 141.824692,83.809853 141.989227,81.374863 
	C142.352280,80.559273 142.715347,79.743690 143.441910,79.451294 
	C143.996094,80.393890 144.550278,81.336487 145.557999,83.050522 
	C147.477493,78.061768 145.935135,74.338089 144.282730,70.668587 
	C144.226532,70.543777 142.935791,70.974899 141.529129,71.061249 
	C141.067184,71.028191 140.605225,70.995132 140.044769,70.122803 
	C139.679596,67.806572 139.314407,65.490349 138.831192,62.504398 
	C137.992584,60.955727 137.153976,59.407051 136.158081,57.179901 
	C134.430084,55.121422 132.702103,53.062943 131.591263,50.547012 
	C132.866592,50.903713 134.141922,51.260414 135.417252,51.617115 
	C135.638290,51.325611 135.859314,51.034107 136.080353,50.742603 
	C133.446594,47.422031 130.812820,44.101463 127.903503,40.200462 
	C126.351021,38.763504 124.798546,37.326546 122.981934,35.262959 
	C119.291451,32.335526 115.600975,29.408092 111.910492,26.480659 
	C111.647697,26.698677 111.384911,26.916697 111.122116,27.134714 
	C111.699234,29.081432 112.276352,31.028149 111.816422,33.002251 
	C111.471169,33.021774 111.125916,33.041294 110.421112,32.768154 
	C110.306030,32.475445 110.133240,32.222107 109.925140,31.487358 
	C109.672562,31.268902 109.419991,31.050447 108.987450,30.954344 
	C108.987450,30.954344 109.159584,30.818163 109.054871,30.159386 
	C107.405891,28.383682 105.756912,26.607981 103.750679,24.250177 
	C100.838806,23.188314 97.926941,22.126450 94.340271,20.692064 
	C92.566338,20.411575 90.792412,20.131088 88.649651,19.180746 
	C88.363136,18.477749 88.076630,17.774752 88.093307,16.834785 
	C84.271172,16.494009 80.449043,16.153233 76.626900,15.812457 
	C76.649910,16.438864 76.672920,17.065271 75.993477,17.998554 
	C75.657646,18.374844 75.321808,18.751131 74.291313,19.274645 
	C72.906921,19.558939 71.522537,19.843233 69.406616,20.091219 
	C67.246796,20.964697 65.086967,21.838177 62.262970,22.898382 
	C60.480263,24.175421 58.697556,25.452457 56.310635,27.046236 
	C55.206730,27.706348 54.102825,28.366461 52.828220,28.405945 
	C52.347095,27.923265 51.543335,26.955591 51.432400,27.029390 
	C49.127396,28.562757 46.900997,30.214291 44.000233,31.949917 
	C40.994434,34.946800 37.988636,37.943684 34.474102,41.354820 
	C33.095985,43.268906 31.717873,45.182995 29.934872,47.651058 
	C28.817858,49.556778 27.700846,51.462498 26.376593,53.721786 
	C27.902882,53.834103 28.970490,53.912663 29.910553,54.542744 
	C29.630323,54.794838 29.350092,55.046936 28.522087,55.630100 
	C27.330051,57.735531 26.138018,59.840965 24.391869,62.463097 
	C24.276468,66.278893 24.161068,70.094688 23.813093,74.367661 
	C23.548708,74.575737 23.284323,74.783813 22.553158,74.441086 
	C21.699303,72.463600 20.845449,70.486115 19.991594,68.508629 
	C19.575357,68.567139 19.159121,68.625648 18.742884,68.684158 
	C18.534353,72.730156 18.325821,76.776146 18.212307,81.352928 
	C18.502331,81.535812 18.792353,81.718697 19.477873,81.734688 
	C19.477873,81.734688 19.847202,81.515892 20.202642,82.173889 
	C20.873499,82.457581 21.544355,82.741280 22.116756,83.856377 
	C22.079754,85.245277 22.042751,86.634171 21.842552,88.851929 
	C22.261007,91.258347 22.679462,93.664764 23.146669,96.762329 
	C23.424202,97.836311 23.701735,98.910301 23.327473,100.228378 
	C24.560249,103.127586 25.793024,106.026794 27.145397,109.646751 
	C27.326458,109.809624 27.507519,109.972496 27.647337,110.379822 
	C27.647337,110.379822 28.045801,110.617996 28.203480,111.276932 
	C29.114033,112.534882 30.024586,113.792831 31.133142,115.688522 
	C32.768909,117.476730 34.404678,119.264931 36.273899,121.660645 
	C38.456348,123.479912 40.638798,125.299179 43.128647,127.733673 
	C45.754150,129.508072 48.379658,131.282486 51.371307,133.598663 
	C52.326820,134.029495 53.282333,134.460327 54.195187,134.871918 
	C54.880962,133.776291 55.434872,132.891342 56.541534,132.338089 
	C57.624866,133.012283 58.708199,133.686493 60.223320,134.888702 
	C62.814411,135.926422 65.405502,136.964142 68.282219,138.433609 
	C68.860878,138.331100 69.439529,138.228607 70.848061,138.094208 
	C72.231438,138.124954 73.614807,138.155716 75.369133,138.591721 
	C75.908264,139.054352 76.447395,139.516998 76.359154,140.186508 
M13.725208,101.888382 
	C14.661523,100.561752 15.597837,99.235115 16.534153,97.908485 
	C15.240132,97.557205 13.506552,96.504219 12.735238,96.987373 
	C10.501001,98.386948 10.892838,100.229820 13.725208,101.888382 
z"/>
<path fill="#F3F1F0" opacity="1.000000" stroke="none" 
	d="
M74.985977,19.127420 
	C75.321808,18.751131 75.657646,18.374844 76.668289,17.882586 
	C80.825439,17.534998 84.307777,17.303379 87.790115,17.071758 
	C88.076630,17.774752 88.363136,18.477749 88.534172,19.689098 
	C85.749184,21.111721 85.918968,22.821333 87.444656,24.527668 
	C89.479897,26.803896 91.733406,28.884960 94.015793,31.368690 
	C95.382797,33.800713 96.627182,35.913891 97.895508,38.391624 
	C98.586868,40.507977 99.254295,42.259777 99.903168,44.348526 
	C99.980331,45.123447 100.076042,45.561428 100.092896,46.361557 
	C100.262901,47.911991 100.511772,49.100277 100.713097,50.730843 
	C100.679634,53.257355 100.872604,55.359615 100.664909,57.421509 
	C100.370407,60.345062 101.635101,60.794506 104.461960,59.997856 
	C107.266617,60.038631 109.633064,60.022984 112.351768,60.158329 
	C118.382545,62.417049 124.061050,64.524780 129.965973,66.826050 
	C131.468475,68.002647 132.744583,68.985695 133.894775,70.206451 
	C133.479172,70.649765 133.189468,70.855370 132.565613,70.942490 
	C129.261200,69.828636 126.290962,68.833260 123.060776,67.559296 
	C122.007133,67.074341 121.123642,67.027176 120.433205,66.637726 
	C110.279305,60.910301 99.843079,64.287216 94.940216,74.943878 
	C94.957512,74.954353 94.944038,74.921227 94.694672,75.095665 
	C94.163811,75.806839 93.882324,76.343567 93.375160,77.058121 
	C93.051414,77.798347 92.953339,78.360733 92.528534,78.982086 
	C92.101013,80.042198 92.000237,81.043335 92.020264,82.338829 
	C93.089607,83.749290 94.038139,84.865402 95.095596,86.323990 
	C97.133705,87.881592 99.062889,89.096725 101.042847,90.585770 
	C101.713753,91.516716 102.333893,92.173752 102.564125,92.894501 
	C101.147873,93.103752 100.121529,93.249298 98.705994,93.450027 
	C99.489746,95.552216 100.140663,97.298103 100.782310,99.298721 
	C100.854942,99.702324 100.936836,99.851196 100.969849,100.430229 
	C101.035088,102.586479 101.149200,104.312569 101.189880,106.361786 
	C101.165749,107.122337 101.215050,107.559738 101.194534,108.407898 
	C101.077309,110.206337 101.029907,111.594025 100.652527,113.192123 
	C99.870209,115.932220 99.417870,118.461906 98.613602,120.992844 
	C97.792061,121.001480 97.322449,121.008858 96.861908,120.757416 
	C96.928879,120.335930 96.986786,120.173271 97.298935,119.816223 
	C97.650475,119.011246 97.747765,118.400650 97.878433,117.495056 
	C97.993507,116.812767 98.075203,116.425476 98.301361,115.940475 
	C98.498764,115.740044 98.618713,115.612823 98.591827,115.539314 
	C98.517113,115.335014 98.381348,115.153046 98.287071,114.579651 
	C98.218521,110.772263 98.132599,107.347473 98.056259,103.756020 
	C98.029831,103.360817 97.926056,103.168922 97.583916,102.685257 
	C97.219170,101.903984 97.025055,101.451126 96.821259,100.631020 
	C95.333359,97.383797 95.899734,92.980309 91.345238,92.377335 
	C88.594704,92.013199 85.781616,92.121582 82.670433,91.871277 
	C80.029778,89.006218 77.685120,89.796165 75.098862,91.656006 
	C74.548340,91.698128 74.261826,91.822098 73.627350,92.037399 
	C68.452461,92.734505 64.653870,94.805634 63.924126,100.004364 
	C63.562439,102.581017 64.099174,105.283768 64.204536,108.297920 
	C65.092171,111.139389 66.004715,113.612419 66.949585,116.450760 
	C67.034004,117.790146 67.086090,118.764229 67.083206,120.111969 
	C66.582428,121.056648 66.136612,121.627663 65.434708,121.975876 
	C63.867622,119.060127 62.556622,116.367172 61.215759,113.287201 
	C60.704079,110.538292 60.222256,108.176407 59.786339,105.381065 
	C59.821934,101.974541 59.811623,99.001472 59.874069,95.629700 
	C59.782967,94.515274 59.716774,93.218544 59.440418,93.172096 
	C55.999283,92.593651 52.527618,92.196800 48.795753,91.528305 
	C46.024143,90.600075 43.520580,89.896812 40.756191,88.992706 
	C39.338623,88.176735 38.181873,87.561600 37.220364,86.690605 
	C38.253403,86.301186 39.091206,86.167625 40.310852,86.072327 
	C43.472145,86.735420 46.251598,87.360237 49.409958,88.136826 
	C51.901691,88.583130 54.006126,89.019928 56.128941,89.145172 
	C62.141163,89.499924 64.327866,87.264801 64.541672,81.077499 
	C65.449821,80.615234 66.042709,80.144356 66.635597,79.673477 
	C66.103867,79.436417 65.572128,79.199371 64.992386,78.568893 
	C64.594955,77.112480 64.269875,76.040764 63.892323,74.987862 
	C60.139297,64.521713 63.335468,65.000633 51.432655,65.390686 
	C50.376202,64.901329 49.691635,64.541466 49.371536,64.103317 
	C50.844349,63.716511 51.952698,63.407978 53.480812,63.047222 
	C55.582687,62.886333 57.264797,62.777668 59.251526,62.712502 
	C59.828266,62.165192 60.100388,61.574383 60.364494,60.616383 
	C60.186848,58.496696 60.017216,56.744209 59.926601,54.598747 
	C60.281559,51.800983 60.557495,49.396183 60.994179,46.659508 
	C61.778362,44.220898 62.401802,42.114170 63.262848,39.858253 
	C63.910538,39.099823 64.320618,38.490585 65.133163,37.919083 
	C66.072243,37.984726 66.608871,38.012642 67.126862,38.353603 
	C67.058090,39.081409 67.007950,39.496170 66.715034,40.074436 
	C66.114731,40.848011 65.757195,41.458084 65.365921,42.437927 
	C65.243423,43.544910 65.154671,44.282112 64.778984,45.142067 
	C64.393410,45.854366 64.294777,46.443916 64.186562,47.440926 
	C64.213745,48.934185 64.250511,50.019997 63.905724,51.282875 
	C62.100845,60.552479 62.758041,62.618809 68.110748,65.453766 
	C69.166428,65.831894 70.009354,65.968193 71.101944,66.350479 
	C72.877441,67.257355 74.403282,67.918243 76.110901,68.751709 
	C76.762817,69.092270 77.232956,69.260269 77.973473,69.656868 
	C79.883980,69.374023 81.524101,68.862572 83.470886,68.225487 
	C84.861458,66.757225 85.945374,65.414604 87.367722,64.126083 
	C89.270683,63.836472 91.316025,63.987499 92.292412,63.038601 
	C93.954918,61.422894 94.945351,59.115635 96.463562,56.882507 
	C96.693649,55.809601 96.678322,54.953121 96.736366,53.670761 
	C96.733253,51.812992 96.656769,50.381104 96.679787,48.719719 
	C96.629990,48.204617 96.480690,47.919014 96.344139,47.422970 
	C96.356888,47.212528 96.190338,46.825157 96.239586,46.439320 
	C95.166168,43.037529 94.043510,40.021572 92.851570,36.675209 
	C91.234001,34.145035 89.685707,31.945272 87.996117,29.454233 
	C86.284119,27.659954 84.713417,26.156952 82.967941,24.390507 
	C81.515343,23.575569 80.237503,23.024076 78.696152,22.246531 
	C77.283752,21.056126 76.134865,20.091774 74.985977,19.127420 
M80.641762,83.300903 
	C81.771469,82.231911 82.901176,81.162926 84.012169,80.111641 
	C79.775246,75.332466 79.695992,75.339394 74.057381,81.100914 
	C76.236687,82.052261 78.157661,82.890839 80.641762,83.300903 
M72.440910,70.998352 
	C70.530014,69.940689 68.619125,68.883026 66.103004,67.490379 
	C68.493530,74.917389 71.230690,76.431274 75.849693,73.357162 
	C74.862572,72.648972 73.962608,72.003304 72.440910,70.998352 
z"/>
<path fill="#5DC1EE" opacity="1.000000" stroke="none" 
	d="
M59.847584,54.991718 
	C60.017216,56.744209 60.186848,58.496696 60.112274,60.627457 
	C59.524609,61.034897 59.181149,61.064068 58.561974,60.912659 
	C56.202915,58.451180 54.119583,56.170280 51.930923,53.652271 
	C51.528168,52.992680 51.230740,52.570194 50.924641,51.839783 
	C50.549713,51.157703 50.183456,50.783550 49.817200,50.409393 
	C49.543385,50.895996 49.269573,51.382599 48.671307,51.816460 
	C46.886063,50.850971 45.425274,49.938232 43.942596,48.685829 
	C40.941422,45.877632 37.962128,43.409103 34.982838,40.940571 
	C37.988636,37.943684 40.994434,34.946800 44.724663,31.942688 
	C46.674007,32.695076 47.898926,33.454693 49.095329,34.609245 
	C48.539307,39.057056 46.300575,43.242104 50.044792,47.313316 
	C53.348240,50.102215 56.597912,52.546967 59.847584,54.991718 
z"/>
<path fill="#20355B" opacity="1.000000" stroke="none" 
	d="
M100.171761,45.999409 
	C100.076042,45.561428 99.980331,45.123447 100.254547,44.305889 
	C101.559196,42.665268 102.571899,41.453892 103.412926,40.133198 
	C105.372414,37.056160 107.249260,33.926502 109.159584,30.818165 
	C109.159584,30.818163 108.987450,30.954344 109.089539,31.145039 
	C109.428665,31.559868 109.665703,31.784006 109.902733,32.008144 
	C110.133240,32.222107 110.306030,32.475445 110.594765,33.376801 
	C111.562645,41.280735 111.060158,48.402538 107.786171,55.452911 
	C106.433655,57.135502 105.228699,58.538471 104.023735,59.941437 
	C101.635101,60.794506 100.370407,60.345062 100.664909,57.421509 
	C100.872604,55.359615 100.679634,53.257355 100.817123,50.360600 
	C100.703056,48.365189 100.437408,47.182301 100.171761,45.999409 
z"/>
<path fill="#EC7848" opacity="1.000000" stroke="none" 
	d="
M134.851898,108.949219 
	C132.664612,112.303871 130.477310,115.658531 127.613655,118.967857 
	C121.972198,115.267715 117.007103,111.612892 111.898628,107.685730 
	C110.837158,106.611923 109.919075,105.810471 108.714951,104.854813 
	C107.950417,103.784035 107.471924,102.867455 107.360748,101.991356 
	C113.484673,103.427704 119.241272,104.823563 125.217346,106.520248 
	C128.575180,107.530449 131.713531,108.239830 134.851898,108.949219 
z"/>
<path fill="#814875" opacity="1.000000" stroke="none" 
	d="
M129.739563,66.632507 
	C124.061050,64.524780 118.382545,62.417049 112.501488,59.862217 
	C114.862000,56.942707 117.425056,54.470306 120.264450,52.195457 
	C124.500061,59.378571 128.478394,60.756927 136.315369,57.858379 
	C137.153976,59.407051 137.992584,60.955727 138.561981,62.965408 
	C135.441696,64.495110 132.590637,65.563812 129.739563,66.632507 
z"/>
<path fill="#ED7D3F" opacity="1.000000" stroke="none" 
	d="
M138.432358,96.121101 
	C137.879745,97.183670 137.327148,98.246246 136.426086,99.656021 
	C134.716980,100.669952 133.356308,101.336693 131.684753,102.053238 
	C130.584824,102.274414 129.795792,102.445793 128.991531,102.259315 
	C127.496071,100.917572 126.089760,99.791428 124.521606,98.976822 
	C120.051376,96.654663 115.515266,94.459335 111.381439,92.109406 
	C113.977058,91.493477 116.196335,90.982239 118.819321,90.626152 
	C125.626144,92.561234 132.029251,94.341164 138.432358,96.121101 
z"/>
<path fill="#E94B56" opacity="1.000000" stroke="none" 
	d="
M98.965530,120.991585 
	C99.417870,118.461906 99.870209,115.932220 100.957733,113.351837 
	C102.610893,114.954193 103.449486,116.758591 104.687523,118.225975 
	C106.702019,120.613678 108.977707,122.781013 111.131104,125.405724 
	C110.699875,127.149368 110.280693,128.528641 109.861519,129.907913 
	C107.511337,131.681778 105.161156,133.455643 102.432045,134.900696 
	C100.595673,131.342377 99.138222,128.112839 97.778870,124.554695 
	C98.239822,123.147926 98.602676,122.069756 98.965530,120.991585 
z"/>
<path fill="#336D94" opacity="1.000000" stroke="none" 
	d="
M41.017014,89.193542 
	C43.520580,89.896812 46.024143,90.600075 48.610184,91.830467 
	C45.128384,94.232994 41.564110,96.108383 37.653645,98.017761 
	C35.530617,99.020752 33.753777,99.989769 31.669792,100.997879 
	C28.411085,104.125870 26.491199,99.978828 23.979267,99.984283 
	C23.701735,98.910301 23.424202,97.836311 23.489380,96.351440 
	C29.560396,93.691559 35.288704,91.442551 41.017014,89.193542 
z"/>
<path fill="#EB6B4E" opacity="1.000000" stroke="none" 
	d="
M67.996597,138.001862 
	C65.405502,136.964142 62.814411,135.926422 60.171776,134.270187 
	C61.985287,130.092926 63.850342,126.534180 65.925476,123.260132 
	C70.185333,127.413086 74.235123,131.281342 78.378845,135.595367 
	C77.314590,136.756256 76.156387,137.471359 74.998184,138.186462 
	C73.614807,138.155716 72.231438,138.124954 70.103600,138.016327 
	C68.904961,137.959579 68.450775,137.980713 67.996597,138.001862 
z"/>
<path fill="#3F5972" opacity="1.000000" stroke="none" 
	d="
M36.040451,121.053146 
	C34.404678,119.264931 32.768909,117.476730 31.387068,115.320175 
	C34.796093,112.653366 37.951191,110.354912 41.363228,108.015961 
	C41.802734,107.772018 41.985310,107.568573 42.167885,107.365128 
	C41.446625,107.264435 40.725365,107.163742 39.791748,106.974991 
	C39.301765,106.731674 39.096485,106.509560 39.408951,106.175568 
	C44.231697,105.364716 48.609039,104.598892 53.023575,104.110512 
	C53.000259,105.237167 52.939751,106.086380 52.579361,106.978210 
	C51.511036,107.649368 50.742584,108.277924 49.635056,108.971107 
	C44.877472,113.041534 40.458961,117.047340 36.040451,121.053146 
z"/>
<path fill="#E6453C" opacity="1.000000" stroke="none" 
	d="
M112.042015,107.958076 
	C117.007103,111.612892 121.972198,115.267715 127.307487,119.048347 
	C125.682945,121.382935 123.688210,123.591705 121.095596,125.776047 
	C119.600204,124.522919 118.702682,123.294220 118.157959,122.018166 
	C119.229118,121.221237 119.984016,120.498917 120.599945,119.672958 
	C120.652023,119.603119 119.774246,118.839844 119.328461,118.398727 
	C118.522568,119.328903 117.716675,120.259079 116.611313,121.145523 
	C115.712372,121.050056 115.112892,120.998337 114.442413,120.570747 
	C114.225105,119.187073 114.078789,118.179253 113.951683,116.813507 
	C113.374733,115.661873 112.778572,114.868164 111.877571,113.996613 
	C111.365410,113.886971 111.158089,113.855156 110.770248,113.611588 
	C110.054070,113.269249 109.518402,113.138680 108.690292,112.882065 
	C107.905396,111.864380 107.412941,110.972748 106.941605,110.059517 
	C106.962708,110.037918 107.005112,109.994911 107.345459,110.027847 
	C110.375229,111.923309 110.893845,109.288567 112.042015,107.958076 
z"/>
<path fill="#EEA04C" opacity="1.000000" stroke="none" 
	d="
M138.695740,95.914917 
	C132.029251,94.341164 125.626144,92.561234 119.152145,90.474518 
	C121.955200,88.992645 124.829155,87.817566 128.148804,86.734940 
	C132.837708,87.240181 137.080933,87.652962 141.324142,88.065742 
	C141.369247,88.567581 141.414352,89.069427 141.280853,89.978691 
	C141.102234,90.386116 141.033890,90.637115 141.033905,90.637115 
	C140.342300,92.327660 139.650711,94.018196 138.695740,95.914917 
z"/>
<path fill="#EE9B4C" opacity="1.000000" stroke="none" 
	d="
M65.715401,122.975433 
	C63.850342,126.534180 61.985287,130.092926 59.955879,134.006180 
	C58.708199,133.686493 57.624866,133.012283 56.136589,131.872406 
	C54.809071,129.960266 53.886497,128.513809 53.238789,126.865707 
	C54.680305,124.447861 55.846958,122.231659 57.315365,119.857376 
	C58.826618,117.690933 60.036118,115.682579 61.245621,113.674217 
	C62.556622,116.367172 63.867622,119.060127 65.460159,122.169403 
	C65.741699,122.585716 65.715401,122.975433 65.715401,122.975433 
z"/>
<path fill="#EA5549" opacity="1.000000" stroke="none" 
	d="
M97.680779,124.883293 
	C99.138222,128.112839 100.595673,131.342377 102.089249,134.987762 
	C100.306572,136.221085 98.487755,137.038544 96.071808,137.944199 
	C95.309097,138.106628 95.143509,138.180847 94.977928,138.255081 
	C91.954491,138.271912 88.931053,138.288742 85.313026,138.072510 
	C86.215164,136.590668 87.711891,135.341904 89.515686,133.977783 
	C92.442101,130.869400 95.061440,127.876343 97.680779,124.883293 
z"/>
<path fill="#1F3F6A" opacity="1.000000" stroke="none" 
	d="
M41.106293,108.056458 
	C37.951191,110.354912 34.796093,112.653366 31.288067,115.001297 
	C30.024586,113.792831 29.114033,112.534882 28.077305,110.858047 
	C27.951128,110.439163 27.688580,110.135376 27.688580,110.135376 
	C27.507519,109.972496 27.326458,109.809624 27.092569,108.898697 
	C28.440033,102.495789 32.092819,105.565048 36.679527,106.454231 
	C34.537376,103.950912 33.257156,102.454849 31.976936,100.958778 
	C33.753777,99.989769 35.530617,99.020752 37.647133,98.411469 
	C37.675392,100.558083 37.363964,102.344986 37.039520,104.475151 
	C37.672184,105.285812 38.317863,105.753204 38.963543,106.220596 
	C39.096485,106.509560 39.301765,106.731674 39.921593,107.192383 
	C40.544636,107.684044 40.825462,107.870255 41.106293,108.056458 
z"/>
<path fill="#4594B6" opacity="1.000000" stroke="none" 
	d="
M40.756187,88.992706 
	C35.288704,91.442551 29.560396,93.691559 23.465004,96.005875 
	C22.679462,93.664764 22.261007,91.258347 22.332029,88.418365 
	C26.582903,87.294800 30.344297,86.604790 34.406921,86.002342 
	C35.480476,86.375420 36.252804,86.660934 37.025124,86.946457 
	C38.181873,87.561600 39.338623,88.176735 40.756187,88.992706 
z"/>
<path fill="#263B6A" opacity="1.000000" stroke="none" 
	d="
M112.853485,32.974865 
	C112.276352,31.028149 111.699234,29.081432 111.122116,27.134714 
	C111.384911,26.916697 111.647697,26.698677 111.910492,26.480659 
	C115.600975,29.408092 119.291451,32.335526 122.789154,35.719627 
	C120.032089,39.888260 117.467789,43.600224 114.560394,47.040989 
	C113.762695,42.171482 113.308090,37.573174 112.853485,32.974865 
z"/>
<path fill="#E4EFF1" opacity="1.000000" stroke="none" 
	d="
M49.007072,64.181595 
	C49.691635,64.541466 50.376202,64.901329 51.150848,65.526138 
	C50.841694,65.905708 50.442463,66.020317 49.715828,66.079697 
	C48.589802,66.352150 47.791172,66.679840 46.610619,66.962883 
	C43.178776,68.021133 40.128864,69.124046 36.750450,70.303177 
	C33.314579,72.908646 30.207211,75.437881 26.875675,78.062996 
	C26.364321,78.335732 26.158039,78.580719 25.688120,78.891037 
	C24.300785,80.267143 23.257998,81.646057 22.215212,83.024971 
	C21.544355,82.741280 20.873499,82.457581 20.096104,81.535812 
	C20.999691,78.929123 22.009817,76.960510 23.019941,74.991898 
	C23.284323,74.783813 23.548708,74.575737 24.283148,74.192986 
	C28.198214,71.802910 31.643225,69.587509 35.463348,67.280655 
	C38.938976,66.207108 42.039494,65.224998 45.531658,64.236504 
	C46.951229,64.213943 47.979149,64.197769 49.007072,64.181595 
z"/>
<path fill="#325D82" opacity="1.000000" stroke="none" 
	d="
M109.107224,30.488775 
	C107.249260,33.926502 105.372414,37.056160 103.412926,40.133198 
	C102.571899,41.453892 101.559196,42.665268 100.273102,43.968948 
	C99.254295,42.259777 98.586868,40.507977 98.186150,38.172958 
	C100.337883,33.337254 102.222908,29.084766 104.107933,24.832279 
	C105.756912,26.607981 107.405891,28.383682 109.107224,30.488775 
z"/>
<path fill="#837066" opacity="1.000000" stroke="none" 
	d="
M36.157173,121.356895 
	C40.458961,117.047340 44.877472,113.041534 49.665642,109.365112 
	C49.388069,112.808884 48.740837,115.923279 47.810341,119.217316 
	C45.958473,121.970795 44.389862,124.544624 42.821251,127.118446 
	C40.638798,125.299179 38.456348,123.479912 36.157173,121.356895 
z"/>
<path fill="#5DC5D8" opacity="1.000000" stroke="none" 
	d="
M63.025238,40.007442 
	C62.401802,42.114170 61.778362,44.220898 60.655228,46.617470 
	C58.810478,45.361549 57.284798,43.935322 56.163750,42.241318 
	C54.579391,39.847202 53.294018,37.255226 51.919895,34.420708 
	C52.258404,33.038078 52.557858,31.982569 52.995293,30.613100 
	C53.100403,29.864443 53.067528,29.429747 53.015945,28.992485 
	C52.997234,28.989920 52.998920,29.026573 52.998920,29.026573 
	C54.102825,28.366461 55.206730,27.706348 56.671783,27.296173 
	C57.714413,30.238974 58.084229,33.068668 59.185535,35.577225 
	C59.935913,37.286434 61.709286,38.546532 63.025238,40.007442 
z"/>
<path fill="#E6E5E9" opacity="1.000000" stroke="none" 
	d="
M112.334953,32.988556 
	C113.308090,37.573174 113.762695,42.171482 114.855804,47.328995 
	C118.320862,47.876404 121.147408,47.864605 124.309853,47.943176 
	C126.123634,48.574520 127.601524,49.115498 129.069672,49.947216 
	C129.049805,50.431629 129.039703,50.625301 128.679810,50.812748 
	C127.206665,50.581635 126.083290,50.356743 124.599243,50.047878 
	C123.502205,50.005154 122.765854,50.046402 121.689812,50.037880 
	C120.903435,50.073452 120.456749,50.158791 119.733704,50.228012 
	C119.140724,50.385975 118.824112,50.560051 118.145271,50.731960 
	C114.499939,52.210957 111.216835,53.692123 107.933731,55.173290 
	C111.060158,48.402538 111.562645,41.280735 110.774536,33.523132 
	C111.125916,33.041294 111.471169,33.021774 112.334953,32.988556 
z"/>
<path fill="#3A7A9F" opacity="1.000000" stroke="none" 
	d="
M45.140011,64.242889 
	C42.039494,65.224998 38.938976,66.207108 35.297424,66.950241 
	C31.486256,65.122978 28.216120,63.534687 24.945984,61.946396 
	C26.138018,59.840965 27.330051,57.735531 28.959286,55.737259 
	C31.599548,57.223934 33.802616,58.603458 36.318085,60.137074 
	C39.466995,61.608410 42.303505,62.925648 45.140011,64.242889 
z"/>
<path fill="#4793B6" opacity="1.000000" stroke="none" 
	d="
M103.929306,24.541229 
	C102.222908,29.084766 100.337883,33.337254 98.162216,37.808407 
	C96.627182,35.913891 95.382797,33.800713 94.047409,30.950573 
	C94.309288,27.163939 94.662178,24.114262 95.015068,21.064587 
	C97.926941,22.126450 100.838806,23.188314 103.929306,24.541229 
z"/>
<path fill="#8B4974" opacity="1.000000" stroke="none" 
	d="
M120.010063,50.244125 
	C120.456749,50.158791 120.903435,50.073452 121.871613,50.269943 
	C123.248703,50.411797 124.104317,50.271824 124.959923,50.131851 
	C126.083290,50.356743 127.206665,50.581635 129.006210,50.903465 
	C130.128677,51.018257 130.574951,51.036106 131.024460,51.026894 
	C131.027679,50.999832 130.974106,51.004459 130.974106,51.004463 
	C132.702103,53.062943 134.430084,55.121422 136.236725,57.519142 
	C128.478394,60.756927 124.500061,59.378571 120.266190,51.950417 
	C119.991585,51.507824 119.984856,51.017769 119.992264,50.824394 
	C119.999672,50.631020 120.010063,50.244125 120.010063,50.244125 
z"/>
<path fill="#634773" opacity="1.000000" stroke="none" 
	d="
M123.973953,47.852806 
	C121.147408,47.864605 118.320862,47.876404 115.198898,47.600193 
	C117.467789,43.600224 120.032089,39.888260 122.921219,36.032936 
	C124.798546,37.326546 126.351021,38.763504 127.963013,40.844208 
	C126.672997,43.609570 125.323471,45.731186 123.973953,47.852806 
z"/>
<path fill="#5EC7CC" opacity="1.000000" stroke="none" 
	d="
M63.262848,39.858253 
	C61.709286,38.546532 59.935913,37.286434 59.185535,35.577225 
	C58.084229,33.068668 57.714413,30.238974 56.973888,27.137802 
	C58.697556,25.452457 60.480263,24.175421 62.615223,23.257202 
	C63.665890,27.795277 64.364296,31.974531 65.043175,36.446815 
	C64.925987,37.120346 64.828339,37.500847 64.730698,37.881351 
	C64.320618,38.490585 63.910538,39.099823 63.262848,39.858253 
z"/>
<path fill="#4E9FC3" opacity="1.000000" stroke="none" 
	d="
M24.668926,62.204742 
	C28.216120,63.534687 31.486256,65.122978 34.922314,67.041687 
	C31.643225,69.587509 28.198214,71.802910 24.399437,73.964401 
	C24.161068,70.094688 24.276468,66.278893 24.668926,62.204742 
z"/>
<path fill="#5EC3B4" opacity="1.000000" stroke="none" 
	d="
M65.062714,36.153786 
	C64.364296,31.974531 63.665890,27.795277 62.947311,23.163837 
	C65.086967,21.838177 67.246796,20.964697 69.803223,20.489471 
	C70.463211,23.220005 70.726593,25.552288 70.682480,28.085289 
	C70.253014,29.201769 70.131035,30.117533 70.002937,31.014900 
	C69.996826,30.996508 70.034782,31.004372 69.692314,30.895369 
	C67.920799,32.575504 66.491753,34.364643 65.062714,36.153786 
z"/>
<path fill="#B0BA77" opacity="1.000000" stroke="none" 
	d="
M141.506302,87.668045 
	C137.080933,87.652962 132.837708,87.240181 128.381958,86.504349 
	C130.111420,84.443352 132.053406,82.705414 133.998474,80.984001 
	C134.001572,81.000526 133.967987,80.995674 134.230225,80.982162 
	C134.645142,80.667458 134.797806,80.366280 135.185120,79.788315 
	C136.378708,79.339264 137.337646,79.166992 138.614090,79.010704 
	C139.918671,80.044327 140.905731,81.061958 141.892807,82.079597 
	C141.824692,83.809853 141.756577,85.540100 141.506302,87.668045 
z"/>
<path fill="#4990B1" opacity="1.000000" stroke="none" 
	d="
M34.728470,41.147697 
	C37.962128,43.409103 40.941422,45.877632 43.588421,48.853115 
	C41.132942,49.604359 39.009754,49.848652 36.611248,50.057243 
	C35.865383,50.260445 35.394840,50.499344 34.658119,50.606949 
	C33.041214,49.349464 31.690489,48.223270 30.339760,47.097080 
	C31.717873,45.182995 33.095985,43.268906 34.728470,41.147697 
z"/>
<path fill="#244C7A" opacity="1.000000" stroke="none" 
	d="
M34.924294,50.738243 
	C35.394840,50.499344 35.865383,50.260445 36.800861,50.334690 
	C39.849503,52.726627 42.433212,54.805420 44.817093,57.166435 
	C43.709492,57.400070 42.575111,57.684975 41.931488,57.247643 
	C38.313015,54.788918 36.906307,56.756073 36.005680,59.982979 
	C33.802616,58.603458 31.599548,57.223934 29.233171,55.571724 
	C29.350092,55.046936 29.630323,54.794838 30.327286,54.269470 
	C32.137444,52.910210 33.530869,51.824226 34.924294,50.738243 
z"/>
<path fill="#B88E62" opacity="1.000000" stroke="none" 
	d="
M42.974949,127.426056 
	C44.389862,124.544624 45.958473,121.970795 47.933197,119.502716 
	C48.582077,120.402443 48.824848,121.196419 49.085632,122.361450 
	C49.252426,126.263290 53.756031,128.992035 51.005165,133.056885 
	C48.379658,131.282486 45.754150,129.508072 42.974949,127.426056 
z"/>
<path fill="#9A577F" opacity="1.000000" stroke="none" 
	d="
M124.309845,47.943172 
	C125.323471,45.731186 126.672997,43.609570 128.100800,41.134422 
	C130.812820,44.101463 133.446594,47.422031 136.080353,50.742603 
	C135.859314,51.034107 135.638290,51.325611 135.417252,51.617115 
	C134.141922,51.260414 132.866592,50.903713 131.282684,50.775734 
	C130.974106,51.004459 131.027679,50.999832 131.067734,50.665642 
	C130.431656,50.106461 129.755539,49.881470 129.079407,49.656479 
	C127.601524,49.115498 126.123634,48.574520 124.309845,47.943172 
z"/>
<path fill="#EC7B4A" opacity="1.000000" stroke="none" 
	d="
M131.995651,102.003433 
	C133.356308,101.336693 134.716980,100.669952 136.423569,100.023682 
	C139.976242,103.457634 136.082764,105.713112 135.121887,108.720062 
	C131.713531,108.239830 128.575180,107.530449 125.577347,106.399788 
	C127.810478,104.653481 129.903061,103.328453 131.995651,102.003433 
z"/>
<path fill="#BEAA5E" opacity="1.000000" stroke="none" 
	d="
M70.989975,27.884571 
	C70.726593,25.552288 70.463211,23.220005 70.168991,20.507624 
	C71.522537,19.843233 72.906921,19.558939 74.638641,19.201035 
	C76.134865,20.091774 77.283752,21.056126 78.656311,22.548494 
	C78.554817,24.046562 78.229645,25.016617 77.584045,26.025574 
	C76.171692,27.046516 75.079781,28.028557 73.735596,29.119131 
	C72.999725,29.483810 72.516129,29.739958 72.063759,29.667685 
	C71.726646,28.854368 71.358307,28.369471 70.989975,27.884571 
z"/>
<path fill="#58ACCA" opacity="1.000000" stroke="none" 
	d="
M129.965973,66.826050 
	C132.590637,65.563812 135.441696,64.495110 138.621002,63.300266 
	C139.314407,65.490349 139.679596,67.806572 139.997650,70.847458 
	C139.295532,72.376869 138.640518,73.181618 137.990570,74.002182 
	C137.995621,74.017998 138.030319,74.016273 137.985291,73.738327 
	C137.620529,73.296608 137.300812,73.132828 136.979950,72.986740 
	C136.978806,73.004440 137.011185,73.015945 136.933655,72.709793 
	C135.910980,71.592010 134.965820,70.780380 134.020676,69.968742 
	C132.744583,68.985695 131.468475,68.002647 129.965973,66.826050 
z"/>
<path fill="#79A794" opacity="1.000000" stroke="none" 
	d="
M94.677673,20.878326 
	C94.662178,24.114262 94.309288,27.163939 93.924782,30.631731 
	C91.733406,28.884960 89.479897,26.803896 87.444656,24.527668 
	C85.918968,22.821333 85.749184,21.111721 88.718582,20.024025 
	C90.792412,20.131088 92.566338,20.411575 94.677673,20.878326 
z"/>
<path fill="#5ABABD" opacity="1.000000" stroke="none" 
	d="
M22.165983,83.440674 
	C23.257998,81.646057 24.300785,80.267143 25.837505,79.194366 
	C28.922855,81.638588 31.514275,83.776688 34.105694,85.914780 
	C30.344297,86.604790 26.582903,87.294800 22.413628,88.003937 
	C22.042751,86.634171 22.079754,85.245277 22.165983,83.440674 
z"/>
<path fill="#E85686" opacity="1.000000" stroke="none" 
	d="
M117.805161,122.065521 
	C118.702682,123.294220 119.600204,124.522919 120.786926,125.910240 
	C118.151863,127.817917 115.227592,129.566971 112.278030,130.792084 
	C113.006294,127.160965 113.759857,124.053787 114.513412,120.946609 
	C115.112892,120.998337 115.712372,121.050056 116.719467,121.329384 
	C117.304970,121.790672 117.530991,121.960182 117.805161,122.065521 
z"/>
<path fill="#24436F" opacity="1.000000" stroke="none" 
	d="
M31.669790,100.997879 
	C33.257156,102.454849 34.537376,103.950912 36.679527,106.454231 
	C32.092819,105.565048 28.440033,102.495789 27.032770,108.538322 
	C25.793024,106.026794 24.560249,103.127586 23.653370,100.106331 
	C26.491199,99.978828 28.411085,104.125870 31.669790,100.997879 
z"/>
<path fill="#74CFDA" opacity="1.000000" stroke="none" 
	d="
M142.220474,71.146896 
	C142.935791,70.974899 144.226532,70.543777 144.282730,70.668587 
	C145.935135,74.338089 147.477493,78.061768 145.557999,83.050522 
	C144.550278,81.336487 143.996094,80.393890 143.207977,78.839661 
	C142.722839,75.867645 142.471664,73.507271 142.220474,71.146896 
z"/>
<path fill="#60B5CF" opacity="1.000000" stroke="none" 
	d="
M22.786551,74.716492 
	C22.009817,76.960510 20.999691,78.929123 19.918385,81.206818 
	C19.847202,81.515892 19.477873,81.734688 19.174030,81.596252 
	C18.651407,81.207802 18.400440,80.995918 18.117290,80.822144 
	C18.325821,76.776146 18.534353,72.730156 18.742884,68.684158 
	C19.159121,68.625648 19.575357,68.567139 19.991594,68.508629 
	C20.845449,70.486115 21.699303,72.463600 22.786551,74.716492 
z"/>
<path fill="#D37271" opacity="1.000000" stroke="none" 
	d="
M85.009460,139.978363 
	C85.542168,140.335754 86.074883,140.693130 87.937920,141.943024 
	C82.165306,141.943024 77.780441,141.943024 73.395576,141.943024 
	C73.324661,141.735397 73.253746,141.527771 73.182831,141.320145 
	C74.241600,140.942261 75.300377,140.564392 77.056305,140.087158 
	C80.172119,139.984665 82.590790,139.981506 85.009460,139.978363 
z"/>
<path fill="#F2DBD8" opacity="1.000000" stroke="none" 
	d="
M85.019760,139.533081 
	C82.590790,139.981506 80.172119,139.984665 77.369987,139.983734 
	C76.447395,139.516998 75.908264,139.054352 75.183655,138.389099 
	C76.156387,137.471359 77.314590,136.756256 78.362732,135.613251 
	C78.252663,135.185333 78.172203,135.246887 78.589539,135.217621 
	C79.563858,135.166245 80.120842,135.144104 80.898109,135.383118 
	C81.918449,135.475189 82.718498,135.306122 83.827881,135.086884 
	C85.416611,134.330322 86.696007,133.623932 88.114075,133.175934 
	C88.571381,133.653915 88.889999,133.873520 89.208618,134.093140 
	C87.711891,135.341904 86.215164,136.590668 84.889069,138.018494 
	C85.049812,138.494308 85.039932,138.791061 85.019760,139.533081 
z"/>
<path fill="#2C5182" opacity="1.000000" stroke="none" 
	d="
M34.658119,50.606953 
	C33.530869,51.824226 32.137444,52.910210 30.391060,53.993706 
	C28.970490,53.912663 27.902882,53.834103 26.376593,53.721786 
	C27.700846,51.462498 28.817858,49.556778 30.137318,47.374069 
	C31.690489,48.223270 33.041214,49.349464 34.658119,50.606953 
M30.582611,52.510410 
	C30.582611,52.510410 30.469496,52.577118 30.582611,52.510410 
z"/>
<path fill="#857B8C" opacity="1.000000" stroke="none" 
	d="
M87.941711,16.953272 
	C84.307777,17.303379 80.825439,17.534998 77.019516,17.729147 
	C76.672920,17.065271 76.649910,16.438864 76.626907,15.812457 
	C80.449043,16.153233 84.271172,16.494009 87.941711,16.953272 
z"/>
<path fill="#F2DEE3" opacity="1.000000" stroke="none" 
	d="
M114.442413,120.570747 
	C113.759857,124.053787 113.006294,127.160965 112.147064,130.633560 
	C111.501686,130.715698 110.961967,130.432404 110.141891,130.028519 
	C110.280693,128.528641 110.699875,127.149368 111.358665,125.105026 
	C111.740273,121.531036 111.882263,118.622116 112.302078,115.838776 
	C113.030762,116.366722 113.481621,116.769081 113.932472,117.171440 
	C114.078789,118.179253 114.225105,119.187073 114.442413,120.570747 
z"/>
<path fill="#EEDECE" opacity="1.000000" stroke="none" 
	d="
M51.188236,133.327774 
	C53.756031,128.992035 49.252426,126.263290 49.517296,122.320068 
	C50.217983,121.872154 50.505016,121.836662 50.883034,122.098000 
	C51.637318,123.952332 52.300621,125.509842 52.963921,127.067345 
	C53.886497,128.513809 54.809071,129.960266 55.860214,131.706573 
	C55.434872,132.891342 54.880962,133.776291 54.195187,134.871918 
	C53.282333,134.460327 52.326820,134.029495 51.188236,133.327774 
z"/>
<path fill="#DDEEEC" opacity="1.000000" stroke="none" 
	d="
M141.874802,71.104073 
	C142.471664,73.507271 142.722839,75.867645 143.026215,78.578064 
	C142.715347,79.743690 142.352280,80.559273 141.941010,81.727234 
	C140.905731,81.061958 139.918671,80.044327 138.467865,78.609497 
	C137.997925,76.790321 137.991730,75.388351 137.985535,73.986374 
	C138.640518,73.181618 139.295532,72.376869 140.046906,71.267090 
	C140.605225,70.995132 141.067184,71.028191 141.874802,71.104073 
z"/>
<path fill="#EC5D79" opacity="1.000000" stroke="none" 
	d="
M13.376167,101.785851 
	C10.892838,100.229820 10.501001,98.386948 12.735238,96.987373 
	C13.506552,96.504219 15.240132,97.557205 16.534153,97.908485 
	C15.597837,99.235115 14.661523,100.561752 13.376167,101.785851 
z"/>
<path fill="#69C9E6" opacity="1.000000" stroke="none" 
	d="
M49.123844,34.214310 
	C47.898926,33.454693 46.674007,32.695076 45.054081,31.888969 
	C46.900997,30.214291 49.127396,28.562757 51.432400,27.029390 
	C51.543335,26.955591 52.347095,27.923265 52.913570,28.716259 
	C52.998920,29.026573 52.997234,28.989920 52.745110,28.979204 
	C52.279278,29.253845 52.065567,29.539202 51.610123,30.043736 
	C50.620213,31.580046 49.872028,32.897179 49.123844,34.214310 
z"/>
<path fill="#F2DBD8" opacity="1.000000" stroke="none" 
	d="
M68.139404,138.217743 
	C68.450775,137.980713 68.904961,137.959579 69.688660,138.032272 
	C69.439529,138.228607 68.860878,138.331100 68.139404,138.217743 
z"/>
<path fill="#325D82" opacity="1.000000" stroke="none" 
	d="
M109.913940,31.747751 
	C109.665703,31.784006 109.428665,31.559868 109.179520,31.083862 
	C109.419991,31.050447 109.672562,31.268902 109.913940,31.747751 
z"/>
<path fill="#24436F" opacity="1.000000" stroke="none" 
	d="
M27.667957,110.257599 
	C27.688580,110.135376 27.951128,110.439163 27.998465,110.528580 
	C28.045801,110.617996 27.647337,110.379822 27.667957,110.257599 
z"/>
<path fill="#E4EFF1" opacity="1.000000" stroke="none" 
	d="
M18.164799,81.087540 
	C18.400440,80.995918 18.651407,81.207802 18.976282,81.679695 
	C18.792353,81.718697 18.502331,81.535812 18.164799,81.087540 
z"/>
<path fill="#F2DBD8" opacity="1.000000" stroke="none" 
	d="
M95.096024,138.384460 
	C95.143509,138.180847 95.309097,138.106628 95.745651,138.058533 
	C95.749123,138.227722 95.481621,138.370773 95.096024,138.384460 
z"/>
<path fill="#B0BA77" opacity="1.000000" stroke="none" 
	d="
M141.154892,90.629318 
	C141.033890,90.637115 141.102234,90.386116 141.127930,90.331230 
	C141.153641,90.276344 141.275894,90.621521 141.154892,90.629318 
z"/>
<path fill="#EB673F" opacity="1.000000" stroke="none" 
	d="
M80.677826,135.121964 
	C80.120842,135.144104 79.563858,135.166245 78.729691,134.897614 
	C75.793701,130.788834 73.134888,126.970795 70.822067,122.983612 
	C76.559807,113.881294 75.982002,103.751404 76.899040,93.568283 
	C76.337090,92.690536 75.834129,92.177536 75.331169,91.664528 
	C77.685120,89.796165 80.029778,89.006218 82.671021,92.269272 
	C82.999748,93.875122 83.001686,94.936623 82.825073,96.342194 
	C82.097717,98.513649 81.133415,100.328018 81.075706,102.170776 
	C80.879257,108.443176 81.002533,114.725586 81.003387,121.458771 
	C81.336784,126.273094 81.670555,130.632812 81.672081,135.018509 
	C81.119164,135.070328 80.898491,135.096146 80.677826,135.121964 
z"/>
<path fill="#EC7848" opacity="1.000000" stroke="none" 
	d="
M111.005081,92.214104 
	C115.515266,94.459335 120.051376,96.654663 124.521606,98.976822 
	C126.089760,99.791428 127.496071,100.917572 128.621368,102.389847 
	C122.630714,102.327545 116.997177,101.752701 111.357956,101.240402 
	C109.582710,101.079124 107.792229,101.085617 105.669098,101.025543 
	C104.876762,101.021973 104.424057,101.008171 103.915138,100.637009 
	C102.836479,99.867767 101.814034,99.455887 100.791580,99.043999 
	C100.140663,97.298103 99.489746,95.552216 98.705994,93.450027 
	C100.121529,93.249298 101.147873,93.103752 102.969803,92.938606 
	C106.178612,92.684029 108.591850,92.449066 111.005081,92.214104 
z"/>
<path fill="#EB9E46" opacity="1.000000" stroke="none" 
	d="
M77.904480,25.986670 
	C78.229645,25.016617 78.554817,24.046562 78.919830,22.774546 
	C80.237503,23.024076 81.515343,23.575569 82.926170,24.886169 
	C83.041145,30.108644 82.875450,34.578018 83.056564,39.033291 
	C83.179153,42.049160 83.789513,45.045204 84.138779,48.471825 
	C83.708389,51.594158 83.320953,54.294785 82.532822,56.996658 
	C80.803886,56.993866 79.475647,56.989826 78.108978,56.522274 
	C78.027611,51.381607 77.984688,46.704453 77.966690,41.558327 
	C77.962563,36.055130 77.933525,31.020901 77.904480,25.986670 
z"/>
<path fill="#233C62" opacity="1.000000" stroke="none" 
	d="
M37.052536,104.131882 
	C37.363964,102.344986 37.675392,100.558083 37.993324,98.377487 
	C41.564110,96.108383 45.128384,94.232994 48.878227,92.055450 
	C52.527618,92.196800 55.999283,92.593651 59.440418,93.172096 
	C59.716774,93.218544 59.782967,94.515274 59.623287,95.837059 
	C58.201252,97.653252 57.102753,98.863388 55.620743,100.106422 
	C49.175671,101.470169 43.114105,102.801025 37.052536,104.131882 
z"/>
<path fill="#EB4A3B" opacity="1.000000" stroke="none" 
	d="
M97.044693,120.010612 
	C96.986786,120.173271 96.928879,120.335930 96.625420,120.969925 
	C95.105743,123.434975 93.831619,125.428680 92.232002,127.211395 
	C91.266243,125.667824 90.625977,124.335258 89.943863,122.608940 
	C87.937248,113.811920 85.972488,105.408646 84.335892,96.955170 
	C86.438484,96.572853 87.431419,91.633194 89.846359,96.312820 
	C89.372337,98.227936 88.447884,100.005669 88.851677,101.398262 
	C90.029907,105.461716 91.564285,109.450630 93.317451,113.305779 
	C94.120781,115.072266 95.763229,116.457153 97.024857,118.348785 
	C97.031281,119.125191 97.037987,119.567902 97.044693,120.010612 
z"/>
<path fill="#69406C" opacity="1.000000" stroke="none" 
	d="
M94.922913,74.933411 
	C99.843079,64.287216 110.279305,60.910301 120.433205,66.637726 
	C121.123642,67.027176 122.007133,67.074341 122.825119,67.844559 
	C120.983192,68.971893 119.116989,69.535362 116.834267,70.029251 
	C113.253357,70.152626 109.976822,69.895241 106.951942,70.648491 
	C102.841492,71.672089 98.923462,73.468460 94.922913,74.933411 
z"/>
<path fill="#A79D56" opacity="1.000000" stroke="none" 
	d="
M77.941765,42.027294 
	C77.984688,46.704453 78.027611,51.381607 78.065559,56.944584 
	C77.941422,61.696358 77.822258,65.562317 77.703094,69.428268 
	C77.232956,69.260269 76.762817,69.092270 76.147263,68.278175 
	C75.669670,64.361687 75.447762,61.075573 74.984169,57.823921 
	C73.710243,48.888554 72.334908,39.967644 71.082916,30.791065 
	C71.454926,30.359447 71.743736,30.177776 72.032539,29.996105 
	C72.516129,29.739958 72.999725,29.483810 73.787140,29.512674 
	C74.447021,31.525843 74.649948,33.304153 75.195641,34.970196 
	C75.980156,37.365421 77.014221,39.678913 77.941765,42.027294 
z"/>
<path fill="#5AB6A0" opacity="1.000000" stroke="none" 
	d="
M70.999702,31.041010 
	C72.334908,39.967644 73.710243,48.888554 74.984169,57.823921 
	C75.447762,61.075573 75.669670,64.361687 75.965492,68.105606 
	C74.403282,67.918243 72.877441,67.257355 71.414162,66.079010 
	C71.010262,59.537182 70.753593,53.484844 69.956543,47.504532 
	C69.698936,45.571728 68.022308,43.828049 67.001541,41.650032 
	C66.991455,40.838448 66.974632,40.374691 66.957802,39.910934 
	C67.007950,39.496170 67.058090,39.081409 67.367508,38.112572 
	C68.429443,35.373791 69.232109,33.189083 70.034782,31.004372 
	C70.034782,31.004372 69.996826,30.996508 70.250206,31.060408 
	C70.668953,31.096542 70.834328,31.068775 70.999702,31.041010 
z"/>
<path fill="#EA4A4C" opacity="1.000000" stroke="none" 
	d="
M97.025139,118.015091 
	C95.763229,116.457153 94.120781,115.072266 93.317451,113.305779 
	C91.564285,109.450630 90.029907,105.461716 88.851677,101.398262 
	C88.447884,100.005669 89.372337,98.227936 90.155426,96.447662 
	C92.690910,97.845535 94.760918,99.421906 96.830933,100.998276 
	C97.025055,101.451126 97.219170,101.903984 97.493866,102.855316 
	C97.618332,103.637459 97.775749,103.827087 98.046677,103.922684 
	C98.132599,107.347473 98.218521,110.772263 98.183861,114.840759 
	C98.094482,115.669029 98.125687,115.853607 98.156891,116.038193 
	C98.075203,116.425476 97.993507,116.812767 97.673050,117.549522 
	C97.434273,117.898994 97.025139,118.015091 97.025139,118.015091 
z"/>
<path fill="#EB6948" opacity="1.000000" stroke="none" 
	d="
M76.958031,93.933022 
	C75.982002,103.751404 76.559807,113.881294 70.606720,122.772972 
	C69.076309,121.733772 68.107239,120.736038 67.138168,119.738304 
	C67.086090,118.764229 67.034004,117.790146 67.243149,116.244583 
	C68.976669,112.057030 70.382431,108.412018 71.939720,104.832932 
	C73.535233,101.166008 75.279106,97.563644 76.958031,93.933022 
z"/>
<path fill="#5EC1E5" opacity="1.000000" stroke="none" 
	d="
M51.880840,34.747829 
	C53.294018,37.255226 54.579391,39.847202 56.163750,42.241318 
	C57.284798,43.935322 58.810478,45.361549 60.494484,46.949348 
	C60.557495,49.396183 60.281559,51.800983 59.926601,54.598747 
	C56.597912,52.546967 53.348240,50.102215 50.065601,46.869850 
	C50.648705,42.304100 51.264774,38.525963 51.880840,34.747829 
z"/>
<path fill="#59BCB5" opacity="1.000000" stroke="none" 
	d="
M66.994797,41.997856 
	C68.022308,43.828049 69.698936,45.571728 69.956543,47.504532 
	C70.753593,53.484844 71.010262,59.537182 71.164505,65.833023 
	C70.009354,65.968193 69.166428,65.831894 68.138229,65.016983 
	C66.731064,59.927513 65.509171,55.516659 64.287277,51.105804 
	C64.250511,50.019997 64.213745,48.934185 64.458893,47.391697 
	C64.849174,46.296452 64.957550,45.657883 65.065926,45.019318 
	C65.154671,44.282112 65.243423,43.544910 65.630569,42.422165 
	C66.284241,42.023701 66.639519,42.010777 66.994797,41.997856 
z"/>
<path fill="#4CA1BE" opacity="1.000000" stroke="none" 
	d="
M117.250778,70.098831 
	C119.116989,69.535362 120.983192,68.971893 123.085060,68.123161 
	C126.290962,68.833260 129.261200,69.828636 132.695923,71.160469 
	C133.405441,71.730629 133.650482,71.964317 133.644012,72.444504 
	C130.592667,73.460861 127.792824,74.230736 124.567871,75.000671 
	C120.771423,75.336868 117.400093,75.672997 113.746613,75.780663 
	C113.247353,74.600441 113.030258,73.648689 113.071930,72.494263 
	C114.637398,71.560669 115.944084,70.829750 117.250778,70.098831 
z"/>
<path fill="#ED9449" opacity="1.000000" stroke="none" 
	d="
M76.899040,93.568283 
	C75.279106,97.563644 73.535233,101.166008 71.939720,104.832932 
	C70.382431,108.412018 68.976669,112.057030 67.210823,115.879272 
	C66.004715,113.612419 65.092171,111.139389 64.479813,108.128014 
	C67.855667,102.399567 70.931335,97.209480 74.007004,92.019394 
	C74.261826,91.822098 74.548340,91.698128 75.098862,91.656006 
	C75.834129,92.177536 76.337090,92.690536 76.899040,93.568283 
z"/>
<path fill="#E74A6E" opacity="1.000000" stroke="none" 
	d="
M112.024254,115.713188 
	C111.882263,118.622116 111.740273,121.531036 111.370720,124.740662 
	C108.977707,122.781013 106.702019,120.613678 104.687523,118.225975 
	C103.449486,116.758591 102.610893,114.954193 101.287720,113.141418 
	C101.029907,111.594025 101.077309,110.206337 101.388710,108.400002 
	C101.652710,107.981354 102.040482,107.954147 102.378342,108.004585 
	C104.117638,108.730385 105.519066,109.405746 106.920494,110.081116 
	C107.412941,110.972748 107.905396,111.864380 108.844933,113.133133 
	C109.844933,113.614616 110.397850,113.718979 110.950768,113.823349 
	C111.158089,113.855156 111.365410,113.886971 111.833084,114.266876 
	C112.070381,114.981041 112.047318,115.347115 112.024254,115.713188 
z"/>
<path fill="#48849F" opacity="1.000000" stroke="none" 
	d="
M92.920845,37.005619 
	C94.043510,40.021572 95.166168,43.037529 95.939987,46.660721 
	C94.108528,50.718506 92.839523,54.285915 91.044968,57.565765 
	C90.255814,59.008072 88.396866,59.865044 87.001915,60.582954 
	C87.627327,57.122402 88.274467,54.066673 89.091164,50.659401 
	C90.480766,45.873775 91.700806,41.439697 92.920845,37.005619 
z"/>
<path fill="#F2EEEA" opacity="1.000000" stroke="none" 
	d="
M111.381439,92.109406 
	C108.591850,92.449066 106.178612,92.684029 103.359711,92.874893 
	C102.333893,92.173752 101.713753,91.516716 101.475029,90.500046 
	C104.901527,89.753639 107.946602,89.366859 111.382416,89.007919 
	C114.902618,88.018471 118.032104,87.001183 121.500778,85.936737 
	C124.927315,84.262169 128.014648,82.634735 131.327942,80.966515 
	C131.553909,80.925728 131.951599,80.696083 132.302887,80.699936 
	C133.101242,80.791679 133.548325,80.879578 133.995392,80.967468 
	C132.053406,82.705414 130.111420,84.443352 127.936264,86.411888 
	C124.829155,87.817566 121.955200,88.992645 118.748428,90.319366 
	C116.196335,90.982239 113.977058,91.493477 111.381439,92.109406 
z"/>
<path fill="#E99A4A" opacity="1.000000" stroke="none" 
	d="
M121.161583,85.983887 
	C118.032104,87.001183 114.902618,88.018471 111.123840,88.729149 
	C107.457817,87.702805 104.466286,86.835594 101.415657,86.314232 
	C99.315063,85.955231 97.132561,86.075470 94.986671,85.981522 
	C94.038139,84.865402 93.089607,83.749290 92.417099,82.320602 
	C94.743271,82.248619 96.793427,82.489220 99.269363,82.845009 
	C103.790634,83.331123 107.886124,83.702057 112.277893,84.334152 
	C115.436646,85.058167 118.299110,85.521027 121.161583,85.983887 
z"/>
<path fill="#6C9E89" opacity="1.000000" stroke="none" 
	d="
M92.851570,36.675209 
	C91.700806,41.439697 90.480766,45.873775 88.720200,50.647453 
	C87.419884,49.929058 86.660095,48.871067 85.891602,47.377037 
	C86.634392,41.209167 87.385902,35.477341 88.137413,29.745510 
	C89.685707,31.945272 91.234001,34.145035 92.851570,36.675209 
z"/>
<path fill="#294162" opacity="1.000000" stroke="none" 
	d="
M50.043228,66.134933 
	C50.442463,66.020317 50.841694,65.905708 51.522736,65.655640 
	C63.335468,65.000633 60.139297,64.521713 63.892323,74.987862 
	C64.269875,76.040764 64.594955,77.112480 64.615990,78.574432 
	C63.533627,78.967964 62.779663,78.962524 62.017357,78.583725 
	C59.982521,72.506508 55.460403,69.712906 50.043011,67.651901 
	C50.038448,66.944023 50.040836,66.539474 50.043228,66.134933 
z"/>
<path fill="#D8A450" opacity="1.000000" stroke="none" 
	d="
M87.996117,29.454235 
	C87.385902,35.477341 86.634392,41.209167 85.607986,47.436356 
	C84.949287,47.971184 84.565506,48.010647 84.181717,48.050114 
	C83.789513,45.045204 83.179153,42.049160 83.056564,39.033291 
	C82.875450,34.578018 83.041145,30.108644 83.100937,25.149612 
	C84.713417,26.156952 86.284119,27.659954 87.996117,29.454235 
z"/>
<path fill="#1E4270" opacity="1.000000" stroke="none" 
	d="
M36.318085,60.137074 
	C36.906307,56.756073 38.313015,54.788918 41.931488,57.247643 
	C42.575111,57.684975 43.709492,57.400070 45.070736,57.197376 
	C45.694122,56.957897 45.864029,56.969707 46.176979,57.284874 
	C48.567028,59.425308 50.814037,61.262379 53.061047,63.099449 
	C51.952698,63.407978 50.844349,63.716511 49.371536,64.103317 
	C47.979149,64.197769 46.951229,64.213943 45.531658,64.236504 
	C42.303505,62.925648 39.466995,61.608410 36.318085,60.137074 
z"/>
<path fill="#53416C" opacity="1.000000" stroke="none" 
	d="
M116.834267,70.029251 
	C115.944084,70.829750 114.637398,71.560669 112.694931,72.554535 
	C108.352074,74.200157 104.644989,75.582840 100.555519,76.973106 
	C97.733833,77.628159 95.294548,78.275642 92.855255,78.923126 
	C92.953339,78.360733 93.051414,77.798347 93.693260,76.960083 
	C94.472702,76.096550 94.708374,75.508888 94.944046,74.921227 
	C94.944038,74.921227 94.957512,74.954353 94.940216,74.943878 
	C98.923462,73.468460 102.841492,71.672089 106.951942,70.648491 
	C109.976822,69.895241 113.253357,70.152626 116.834267,70.029251 
z"/>
<path fill="#779571" opacity="1.000000" stroke="none" 
	d="
M84.138779,48.471825 
	C84.565506,48.010647 84.949287,47.971184 85.616699,47.872398 
	C86.660095,48.871067 87.419884,49.929058 88.550644,50.999001 
	C88.274467,54.066673 87.627327,57.122402 86.998810,60.968971 
	C87.021378,62.530529 87.025337,63.301254 87.029289,64.071976 
	C85.945374,65.414604 84.861458,66.757225 83.407913,67.743706 
	C83.003357,63.923508 82.968437,60.459461 82.933517,56.995411 
	C83.320953,54.294785 83.708389,51.594158 84.138779,48.471825 
z"/>
<path fill="#E8773F" opacity="1.000000" stroke="none" 
	d="
M73.627350,92.037399 
	C70.931335,97.209480 67.855667,102.399567 64.504715,107.759567 
	C64.099174,105.283768 63.562439,102.581017 63.924126,100.004364 
	C64.653870,94.805634 68.452461,92.734505 73.627350,92.037399 
z"/>
<path fill="#E68645" opacity="1.000000" stroke="none" 
	d="
M61.215759,113.287201 
	C60.036118,115.682579 58.826618,117.690933 57.165981,119.553711 
	C55.445702,117.559410 54.176559,115.710693 52.928482,113.542847 
	C52.944355,112.796600 52.939163,112.369492 52.886154,111.937851 
	C52.838337,111.933319 52.776672,111.859657 53.112850,111.798073 
	C55.546165,109.762505 57.643299,107.788513 59.740433,105.814522 
	C60.222256,108.176407 60.704079,110.538292 61.215759,113.287201 
z"/>
<path fill="#614270" opacity="1.000000" stroke="none" 
	d="
M119.984856,51.017769 
	C119.984856,51.017769 119.991585,51.507824 119.989845,51.752865 
	C117.425056,54.470306 114.862000,56.942707 112.149223,59.711224 
	C109.633064,60.022984 107.266617,60.038631 104.461960,59.997860 
	C105.228699,58.538471 106.433655,57.135502 107.786171,55.452911 
	C111.216835,53.692123 114.499939,52.210957 118.511765,50.822250 
	C119.488609,50.949062 119.736732,50.983418 119.984856,51.017769 
z"/>
<path fill="#2B5676" opacity="1.000000" stroke="none" 
	d="
M64.226418,81.068878 
	C64.327866,87.264801 62.141163,89.499924 56.128941,89.145172 
	C54.006126,89.019928 51.901691,88.583130 49.633781,87.870926 
	C50.993698,86.311867 52.508698,85.170464 54.390800,84.018227 
	C56.187622,83.361122 57.617340,82.714851 59.429726,82.057838 
	C61.283737,81.721024 62.755077,81.394951 64.226418,81.068878 
z"/>
<path fill="#2A5678" opacity="1.000000" stroke="none" 
	d="
M87.367722,64.126083 
	C87.025337,63.301254 87.021378,62.530529 87.020538,61.373795 
	C88.396866,59.865044 90.255814,59.008072 91.044968,57.565765 
	C92.839523,54.285915 94.108528,50.718506 95.890739,47.046562 
	C96.190338,46.825157 96.356888,47.212528 96.258133,47.656063 
	C96.137825,48.463051 96.278122,48.746254 96.580276,48.949215 
	C96.656769,50.381104 96.733253,51.812992 96.522339,53.905415 
	C96.229355,55.410278 96.223755,56.254604 96.218155,57.098930 
	C94.945351,59.115635 93.954918,61.422894 92.292412,63.038601 
	C91.316025,63.987499 89.270683,63.836472 87.367722,64.126083 
z"/>
<path fill="#9E7D69" opacity="1.000000" stroke="none" 
	d="
M59.786339,105.381065 
	C57.643299,107.788513 55.546165,109.762505 53.072117,111.383736 
	C52.756550,109.665855 52.817894,108.300720 52.879238,106.935593 
	C52.939751,106.086380 53.000259,105.237167 53.237854,103.874680 
	C54.278046,102.265450 55.141148,101.169487 56.004250,100.073524 
	C57.102753,98.863388 58.201252,97.653252 59.550533,96.235764 
	C59.811623,99.001472 59.821934,101.974541 59.786339,105.381065 
z"/>
<path fill="#357393" opacity="1.000000" stroke="none" 
	d="
M53.480812,63.047226 
	C50.814037,61.262379 48.567028,59.425308 46.537544,57.282486 
	C48.515461,55.947620 50.275856,54.918499 52.036251,53.889381 
	C54.119583,56.170280 56.202915,58.451180 58.579437,61.175026 
	C58.897381,61.968315 58.922142,62.318657 58.946899,62.669003 
	C57.264797,62.777668 55.582687,62.886333 53.480812,63.047226 
z"/>
<path fill="#E89044" opacity="1.000000" stroke="none" 
	d="
M82.532822,56.996658 
	C82.968437,60.459461 83.003357,63.923508 83.101257,67.869339 
	C81.524101,68.862572 79.883980,69.374023 77.973473,69.656868 
	C77.822258,65.562317 77.941422,61.696358 78.103989,57.408092 
	C79.475647,56.989826 80.803886,56.993866 82.532822,56.996658 
z"/>
<path fill="#EADEDB" opacity="1.000000" stroke="none" 
	d="
M67.083206,120.111969 
	C68.107239,120.736038 69.076309,121.733772 70.260727,122.942139 
	C73.134888,126.970795 75.793701,130.788834 78.312355,134.926880 
	C78.172203,135.246887 78.252663,135.185333 78.268784,135.167465 
	C74.235123,131.281342 70.185333,127.413086 65.925476,123.260132 
	C65.715401,122.975433 65.741699,122.585716 65.716248,122.392197 
	C66.136612,121.627663 66.582428,121.056648 67.083206,120.111969 
z"/>
<path fill="#4B887A" opacity="1.000000" stroke="none" 
	d="
M92.528526,78.982086 
	C95.294548,78.275642 97.733833,77.628159 100.812286,77.255119 
	C102.966446,77.692871 104.481438,77.856194 105.995720,78.384674 
	C106.005165,79.479675 106.015320,80.209511 105.605225,80.965942 
	C103.071175,81.571632 100.957382,82.150734 98.843582,82.729828 
	C96.793427,82.489220 94.743271,82.248619 92.296280,82.026245 
	C92.000237,81.043335 92.101013,80.042198 92.528526,78.982086 
z"/>
<path fill="#E95B46" opacity="1.000000" stroke="none" 
	d="
M96.821259,100.631020 
	C94.760918,99.421906 92.690910,97.845535 90.311821,96.134315 
	C87.431419,91.633194 86.438484,96.572853 84.226135,96.735397 
	C83.588890,96.290604 83.327362,96.101372 83.003624,95.998116 
	C83.001686,94.936623 82.999748,93.875122 82.997223,92.415634 
	C85.781616,92.121582 88.594704,92.013199 91.345238,92.377335 
	C95.899734,92.980309 95.333359,97.383797 96.821259,100.631020 
z"/>
<path fill="#E9814D" opacity="1.000000" stroke="none" 
	d="
M80.360199,83.515160 
	C78.157661,82.890839 76.236687,82.052261 74.057381,81.100914 
	C79.695992,75.339394 79.775246,75.332466 84.012169,80.111641 
	C82.901176,81.162926 81.771469,82.231911 80.360199,83.515160 
z"/>
<path fill="#E6453C" opacity="1.000000" stroke="none" 
	d="
M106.941605,110.059517 
	C105.519066,109.405746 104.117638,108.730385 102.357399,107.735916 
	C101.753502,106.957420 101.508408,106.498039 101.263313,106.038651 
	C101.149200,104.312569 101.035088,102.586479 101.284683,100.455566 
	C102.422714,100.365280 103.197029,100.679832 103.971344,100.994385 
	C104.424057,101.008171 104.876762,101.021973 105.872948,101.135941 
	C106.674858,101.421013 106.867195,101.659256 106.993439,101.950867 
	C107.471924,102.867455 107.950417,103.784035 108.672363,105.171600 
	C108.278915,107.093369 107.642014,108.544136 107.005112,109.994911 
	C107.005112,109.994911 106.962708,110.037918 106.941605,110.059517 
M103.259636,102.814026 
	C103.374741,102.972321 103.489845,103.130615 103.604950,103.288910 
	C103.581543,103.068672 103.558128,102.848434 103.259636,102.814026 
z"/>
<path fill="#EC7C3F" opacity="1.000000" stroke="none" 
	d="
M95.095596,86.323990 
	C97.132561,86.075470 99.315063,85.955231 101.415657,86.314232 
	C104.466286,86.835594 107.457817,87.702805 110.733116,88.701309 
	C107.946602,89.366859 104.901527,89.753639 101.424263,90.226135 
	C99.062889,89.096725 97.133705,87.881592 95.095596,86.323990 
z"/>
<path fill="#6BC3C8" opacity="1.000000" stroke="none" 
	d="
M63.905731,51.282875 
	C65.509171,55.516659 66.731064,59.927513 67.925484,64.775162 
	C62.758041,62.618809 62.100845,60.552479 63.905731,51.282875 
z"/>
<path fill="#3A7C9E" opacity="1.000000" stroke="none" 
	d="
M54.023697,84.029060 
	C52.508698,85.170464 50.993698,86.311867 49.254871,87.719162 
	C46.251598,87.360237 43.472145,86.735420 40.161068,85.869591 
	C39.548004,85.481598 39.466572,85.334625 39.831821,85.128738 
	C43.186375,84.390327 46.094246,83.710838 49.372124,83.034073 
	C51.169319,83.367554 52.596508,83.698303 54.023697,84.029060 
z"/>
<path fill="#F0DCDB" opacity="1.000000" stroke="none" 
	d="
M92.557495,127.422386 
	C93.831619,125.428680 95.105743,123.434975 96.616356,121.228745 
	C97.322449,121.008858 97.792061,121.001480 98.613602,120.992844 
	C98.602676,122.069756 98.239822,123.147926 97.778870,124.554695 
	C95.061440,127.876343 92.442101,130.869400 89.515686,133.977783 
	C88.889999,133.873520 88.571381,133.653915 88.278595,132.896317 
	C89.722130,130.713013 91.139809,129.067703 92.557495,127.422386 
z"/>
<path fill="#847D67" opacity="1.000000" stroke="none" 
	d="
M72.751778,71.177994 
	C73.962608,72.003304 74.862572,72.648972 75.849693,73.357162 
	C71.230690,76.431274 68.493530,74.917389 66.103004,67.490379 
	C68.619125,68.883026 70.530014,69.940689 72.751778,71.177994 
z"/>
<path fill="#D7EDEF" opacity="1.000000" stroke="none" 
	d="
M39.385143,85.187653 
	C39.466572,85.334625 39.548004,85.481598 39.779221,85.831314 
	C39.091206,86.167625 38.253403,86.301186 37.220367,86.690605 
	C36.252804,86.660934 35.480476,86.375420 34.406921,86.002342 
	C31.514275,83.776688 28.922855,81.638588 26.182051,79.197166 
	C26.158039,78.580719 26.364321,78.335732 27.074844,78.089806 
	C27.498177,78.020737 27.898167,78.060974 28.060738,78.359108 
	C31.508188,80.702896 34.793072,82.748550 38.282501,84.906082 
	C38.769299,85.165276 39.068665,85.221832 39.385143,85.187653 
z"/>
<path fill="#E6F4F2" opacity="1.000000" stroke="none" 
	d="
M69.692314,30.895369 
	C69.232109,33.189083 68.429443,35.373791 67.386131,37.799530 
	C66.608871,38.012642 66.072243,37.984726 65.133163,37.919083 
	C64.828339,37.500847 64.925987,37.120346 65.043175,36.446815 
	C66.491753,34.364643 67.920799,32.575504 69.692314,30.895369 
z"/>
<path fill="#3A7E77" opacity="1.000000" stroke="none" 
	d="
M64.541672,81.077499 
	C62.755077,81.394951 61.283737,81.721024 59.504700,81.796097 
	C59.127972,80.709480 59.058933,79.873871 59.368893,79.021194 
	C60.507160,78.988457 61.266430,78.972771 62.025700,78.957085 
	C62.779663,78.962524 63.533627,78.967964 64.663986,78.967865 
	C65.572128,79.199371 66.103867,79.436417 66.635597,79.673477 
	C66.042709,80.144356 65.449821,80.615234 64.541672,81.077499 
z"/>
<path fill="#DDEEEC" opacity="1.000000" stroke="none" 
	d="
M133.895523,72.198013 
	C133.650482,71.964317 133.405441,71.730629 133.030090,71.278961 
	C133.189468,70.855370 133.479172,70.649765 133.894775,70.206451 
	C134.965820,70.780380 135.910980,71.592010 136.608490,72.789093 
	C135.539062,72.849037 134.717285,72.523529 133.895523,72.198013 
z"/>
<path fill="#5EC1E5" opacity="1.000000" stroke="none" 
	d="
M59.251526,62.712502 
	C58.922142,62.318657 58.897381,61.968315 58.855156,61.355606 
	C59.181149,61.064068 59.524609,61.034897 60.120285,60.994652 
	C60.100388,61.574383 59.828266,62.165192 59.251526,62.712502 
z"/>
<path fill="#E84A3F" opacity="1.000000" stroke="none" 
	d="
M103.915138,100.637016 
	C103.197029,100.679832 102.422714,100.365280 101.333565,100.025391 
	C100.936836,99.851196 100.854942,99.702324 100.782310,99.298721 
	C101.814034,99.455887 102.836479,99.867767 103.915138,100.637016 
z"/>
<path fill="#325D82" opacity="1.000000" stroke="none" 
	d="
M100.092896,46.361557 
	C100.437408,47.182301 100.703056,48.365189 100.864670,49.918320 
	C100.511772,49.100277 100.262901,47.911991 100.092896,46.361557 
z"/>
<path fill="#6BC3C8" opacity="1.000000" stroke="none" 
	d="
M64.778984,45.142067 
	C64.957550,45.657883 64.849174,46.296452 64.468475,46.984245 
	C64.294777,46.443916 64.393410,45.854366 64.778984,45.142067 
z"/>
<path fill="#48849F" opacity="1.000000" stroke="none" 
	d="
M96.463562,56.882507 
	C96.223755,56.254604 96.229355,55.410278 96.448975,54.331291 
	C96.678322,54.953121 96.693649,55.809601 96.463562,56.882507 
z"/>
<path fill="#6BC3C8" opacity="1.000000" stroke="none" 
	d="
M67.001541,41.650032 
	C66.639519,42.010777 66.284241,42.023701 65.664307,42.052391 
	C65.757195,41.458084 66.114731,40.848011 66.715034,40.074436 
	C66.974632,40.374691 66.991455,40.838448 67.001541,41.650032 
z"/>
<path fill="#EDC1C2" opacity="1.000000" stroke="none" 
	d="
M97.024857,118.348785 
	C97.025139,118.015091 97.434273,117.898994 97.639664,117.844528 
	C97.747765,118.400650 97.650475,119.011246 97.298943,119.816223 
	C97.037987,119.567902 97.031281,119.125191 97.024857,118.348785 
z"/>
<path fill="#69406C" opacity="1.000000" stroke="none" 
	d="
M94.694672,75.095665 
	C94.708374,75.508888 94.472702,76.096550 93.918930,76.782249 
	C93.882324,76.343567 94.163811,75.806839 94.694672,75.095665 
z"/>
<path fill="#E94B56" opacity="1.000000" stroke="none" 
	d="
M101.189880,106.361786 
	C101.508408,106.498039 101.753502,106.957420 102.019531,107.685478 
	C102.040482,107.954147 101.652710,107.981354 101.458527,107.989250 
	C101.215050,107.559738 101.165749,107.122337 101.189880,106.361786 
z"/>
<path fill="#48849F" opacity="1.000000" stroke="none" 
	d="
M96.679779,48.719719 
	C96.278122,48.746254 96.137825,48.463051 96.245384,47.866505 
	C96.480690,47.919014 96.629990,48.204617 96.679779,48.719719 
z"/>
<path fill="#EDC1C2" opacity="1.000000" stroke="none" 
	d="
M98.056259,103.756020 
	C97.775749,103.827087 97.618332,103.637459 97.664490,103.183739 
	C97.926056,103.168922 98.029831,103.360817 98.056259,103.756020 
z"/>
<path fill="#EDC1C2" opacity="1.000000" stroke="none" 
	d="
M98.301361,115.940475 
	C98.125687,115.853607 98.094482,115.669029 98.166489,115.223358 
	C98.381348,115.153046 98.517113,115.335014 98.591827,115.539314 
	C98.618713,115.612823 98.498764,115.740044 98.301361,115.940475 
z"/>
<path fill="#4181A0" opacity="1.000000" stroke="none" 
	d="
M51.930923,53.652271 
	C50.275856,54.918499 48.515461,55.947620 46.394501,56.979126 
	C45.864029,56.969707 45.694122,56.957897 45.270569,56.915150 
	C42.433212,54.805420 39.849503,52.726627 37.076180,50.370392 
	C39.009754,49.848652 41.132942,49.604359 43.610306,49.192780 
	C45.425274,49.938232 46.886063,50.850971 48.995064,51.859512 
	C50.073284,52.019447 50.503300,52.083580 50.933311,52.147713 
	C51.230740,52.570194 51.528168,52.992680 51.930923,53.652271 
z"/>
<path fill="#DAF1F8" opacity="1.000000" stroke="none" 
	d="
M51.919895,34.420708 
	C51.264774,38.525963 50.648705,42.304100 50.011826,46.525703 
	C46.300575,43.242104 48.539307,39.057056 49.095329,34.609245 
	C49.872028,32.897179 50.620213,31.580046 51.732044,30.269382 
	C52.349567,30.492922 52.603439,30.709990 52.857315,30.927059 
	C52.557858,31.982569 52.258404,33.038078 51.919895,34.420708 
z"/>
<path fill="#5EC1E5" opacity="1.000000" stroke="none" 
	d="
M50.924641,51.839783 
	C50.503300,52.083580 50.073284,52.019447 49.319515,51.912258 
	C49.269573,51.382599 49.543385,50.895996 49.817200,50.409393 
	C50.183456,50.783550 50.549713,51.157703 50.924641,51.839783 
z"/>
<path fill="#F8E7E2" opacity="1.000000" stroke="none" 
	d="
M107.360748,101.991356 
	C106.867195,101.659256 106.674858,101.421013 106.212570,101.125725 
	C107.792229,101.085617 109.582710,101.079124 111.357956,101.240402 
	C116.997177,101.752701 122.630714,102.327545 128.636612,102.747696 
	C129.795792,102.445793 130.584824,102.274414 131.684753,102.053238 
	C129.903061,103.328453 127.810478,104.653481 125.357880,106.098969 
	C119.241272,104.823563 113.484673,103.427704 107.360748,101.991356 
z"/>
<path fill="#E84A3F" opacity="1.000000" stroke="none" 
	d="
M107.345459,110.027847 
	C107.642014,108.544136 108.278915,107.093369 108.958405,105.325806 
	C109.919075,105.810471 110.837158,106.611923 111.898628,107.685730 
	C110.893845,109.288567 110.375229,111.923309 107.345459,110.027847 
z"/>
<path fill="#E8E9EC" opacity="1.000000" stroke="none" 
	d="
M55.620743,100.106422 
	C55.141148,101.169487 54.278046,102.265450 53.200661,103.597244 
	C48.609039,104.598892 44.231697,105.364716 39.408951,106.175568 
	C38.317863,105.753204 37.672184,105.285812 37.039520,104.475151 
	C43.114105,102.801025 49.175671,101.470169 55.620743,100.106422 
z"/>
<path fill="#E6E1DC" opacity="1.000000" stroke="none" 
	d="
M52.579361,106.978210 
	C52.817894,108.300720 52.756550,109.665855 52.735939,111.445320 
	C52.776672,111.859657 52.838337,111.933319 52.582741,112.040207 
	C52.165913,112.758453 52.004681,113.369812 51.653099,114.289970 
	C51.239185,116.999573 51.015621,119.400375 50.792053,121.801170 
	C50.505016,121.836662 50.217983,121.872154 49.499283,121.949020 
	C48.824848,121.196419 48.582077,120.402443 48.216457,119.323067 
	C48.740837,115.923279 49.388069,112.808884 50.004715,109.300484 
	C50.742584,108.277924 51.511036,107.649368 52.579361,106.978210 
z"/>
<path fill="#24436F" opacity="1.000000" stroke="none" 
	d="
M41.363228,108.015961 
	C40.825462,107.870255 40.544636,107.684044 40.133957,107.280441 
	C40.725365,107.163742 41.446625,107.264435 42.167885,107.365128 
	C41.985310,107.568573 41.802734,107.772018 41.363228,108.015961 
z"/>
<path fill="#E84A3F" opacity="1.000000" stroke="none" 
	d="
M118.157959,122.018166 
	C117.530991,121.960182 117.304970,121.790672 117.018936,121.373123 
	C117.716675,120.259079 118.522568,119.328903 119.328461,118.398727 
	C119.774246,118.839844 120.652023,119.603119 120.599945,119.672958 
	C119.984016,120.498917 119.229118,121.221237 118.157959,122.018166 
z"/>
<path fill="#E84A3F" opacity="1.000000" stroke="none" 
	d="
M112.302078,115.838776 
	C112.047318,115.347115 112.070381,114.981041 112.137924,114.344711 
	C112.778572,114.868164 113.374733,115.661873 113.951683,116.813507 
	C113.481621,116.769081 113.030762,116.366722 112.302078,115.838776 
z"/>
<path fill="#E84A3F" opacity="1.000000" stroke="none" 
	d="
M110.770248,113.611588 
	C110.397850,113.718979 109.844933,113.614616 109.137375,113.259186 
	C109.518402,113.138680 110.054070,113.269249 110.770248,113.611588 
z"/>
<path fill="#D78949" opacity="1.000000" stroke="none" 
	d="
M50.883034,122.098000 
	C51.015621,119.400375 51.239185,116.999573 51.920013,114.264526 
	C52.553986,113.907509 52.730701,113.884743 52.907417,113.861977 
	C54.176559,115.710693 55.445702,117.559410 56.864227,119.711792 
	C55.846958,122.231659 54.680305,124.447861 53.238785,126.865707 
	C52.300621,125.509842 51.637318,123.952332 50.883034,122.098000 
z"/>
<path fill="#438FB3" opacity="1.000000" stroke="none" 
	d="
M27.898167,78.060974 
	C27.898167,78.060974 27.498177,78.020737 27.299007,77.993927 
	C30.207211,75.437881 33.314579,72.908646 36.969467,70.550415 
	C39.666416,71.494003 41.815853,72.266586 43.976124,73.452087 
	C43.988926,75.248459 43.990894,76.631897 43.592289,78.016373 
	C42.123615,78.025513 41.055508,78.033615 39.527214,78.029434 
	C35.344070,78.031754 31.621119,78.046364 27.898167,78.060974 
z"/>
<path fill="#347098" opacity="1.000000" stroke="none" 
	d="
M43.965290,73.039162 
	C41.815853,72.266586 39.666416,71.494003 37.297966,70.474190 
	C40.128864,69.124046 43.178776,68.021133 46.656197,67.352509 
	C47.382523,69.864143 47.681339,71.941490 47.630943,74.011513 
	C46.176250,73.682510 45.070770,73.360832 43.965290,73.039162 
z"/>
<path fill="#2C648B" opacity="1.000000" stroke="none" 
	d="
M47.980160,74.018845 
	C47.681339,71.941490 47.382523,69.864143 47.038124,67.397163 
	C47.791172,66.679840 48.589802,66.352150 49.715828,66.079697 
	C50.040836,66.539474 50.038448,66.944023 50.062004,68.006752 
	C51.716396,71.122650 53.344849,73.580353 54.587769,76.033463 
	C52.128216,75.358849 50.054188,74.688843 47.980160,74.018845 
z"/>
<path fill="#FEFEFE" opacity="1.000000" stroke="none" 
	d="
M52.995293,30.613100 
	C52.603439,30.709990 52.349567,30.492922 51.973778,30.050207 
	C52.065567,29.539202 52.279278,29.253845 52.763821,28.981770 
	C53.067528,29.429747 53.100403,29.864443 52.995293,30.613100 
z"/>
<path fill="#814875" opacity="1.000000" stroke="none" 
	d="
M124.599243,50.047878 
	C124.104317,50.271824 123.248703,50.411797 122.211304,50.319710 
	C122.765854,50.046402 123.502205,50.005154 124.599243,50.047878 
z"/>
<path fill="#FEFEFE" opacity="1.000000" stroke="none" 
	d="
M129.069672,49.947220 
	C129.755539,49.881470 130.431656,50.106461 131.064514,50.692703 
	C130.574951,51.036106 130.128677,51.018257 129.355988,50.909691 
	C129.039703,50.625301 129.049805,50.431629 129.069672,49.947220 
z"/>
<path fill="#814875" opacity="1.000000" stroke="none" 
	d="
M119.992264,50.824394 
	C119.736732,50.983418 119.488609,50.949062 118.873993,50.824417 
	C118.824112,50.560051 119.140724,50.385975 119.733704,50.228012 
	C120.010063,50.244125 119.999672,50.631020 119.992264,50.824394 
z"/>
<path fill="#E6F4F2" opacity="1.000000" stroke="none" 
	d="
M71.082916,30.791065 
	C70.834328,31.068775 70.668953,31.096542 70.256317,31.078800 
	C70.131035,30.117533 70.253014,29.201769 70.682480,28.085289 
	C71.358307,28.369471 71.726646,28.854368 72.063759,29.667686 
	C71.743736,30.177776 71.454926,30.359447 71.082916,30.791065 
z"/>
<path fill="#5DC2BE" opacity="1.000000" stroke="none" 
	d="
M133.644012,72.444504 
	C134.717285,72.523529 135.539062,72.849037 136.686005,73.095245 
	C137.011185,73.015945 136.978806,73.004440 136.996460,73.283134 
	C137.352844,73.713310 137.691574,73.864792 138.030319,74.016273 
	C138.030319,74.016273 137.995621,74.017998 137.990570,74.002182 
	C137.991730,75.388351 137.997925,76.790321 138.150360,78.593506 
	C137.337646,79.166992 136.378708,79.339264 134.907349,79.816956 
	C134.252625,80.413483 134.110306,80.704575 133.967987,80.995674 
	C133.967987,80.995674 134.001572,81.000526 133.998474,80.983994 
	C133.548325,80.879578 133.101242,80.791679 132.164032,80.526718 
	C131.434601,80.147415 131.158356,80.050346 130.495453,80.091705 
	C128.774368,80.273422 127.402946,80.421890 126.014679,80.214638 
	C125.662880,78.239479 125.327927,76.620041 124.992981,75.000610 
	C127.792824,74.230736 130.592667,73.460861 133.644012,72.444504 
z"/>
<path fill="#F2EEEA" opacity="1.000000" stroke="none" 
	d="
M134.230225,80.982162 
	C134.110306,80.704575 134.252625,80.413483 134.672699,80.093742 
	C134.797806,80.366280 134.645142,80.667458 134.230225,80.982162 
z"/>
<path fill="#C2A657" opacity="1.000000" stroke="none" 
	d="
M77.966690,41.558327 
	C77.014221,39.678913 75.980156,37.365421 75.195641,34.970196 
	C74.649948,33.304153 74.447021,31.525843 74.039421,29.404140 
	C75.079781,28.028557 76.171692,27.046516 77.584045,26.025574 
	C77.933525,31.020901 77.962563,36.055130 77.966690,41.558327 
z"/>
<path fill="#DDEEEC" opacity="1.000000" stroke="none" 
	d="
M137.985291,73.738327 
	C137.691574,73.864792 137.352844,73.713310 136.997589,73.265442 
	C137.300812,73.132828 137.620529,73.296608 137.985291,73.738327 
z"/>
<path fill="#EB644A" opacity="1.000000" stroke="none" 
	d="
M92.232002,127.211395 
	C91.139809,129.067703 89.722130,130.713013 88.139923,132.637939 
	C86.696007,133.623932 85.416611,134.330322 83.448730,135.047974 
	C82.508278,135.037003 82.256310,135.014755 82.004333,134.992523 
	C81.670555,130.632812 81.336784,126.273094 81.363747,121.419327 
	C85.341171,118.186066 87.100143,122.834442 89.985710,123.002686 
	C90.625977,124.335258 91.266243,125.667824 92.232002,127.211395 
z"/>
<path fill="#EB6242" opacity="1.000000" stroke="none" 
	d="
M81.672089,135.018509 
	C82.256310,135.014755 82.508278,135.037003 83.139404,135.098145 
	C82.718498,135.306122 81.918449,135.475189 80.898109,135.383118 
	C80.898491,135.096146 81.119164,135.070328 81.672089,135.018509 
z"/>
<path fill="#244C7A" opacity="1.000000" stroke="none" 
	d="
M30.526054,52.543762 
	C30.469496,52.577118 30.582611,52.510410 30.526054,52.543762 
z"/>
<path fill="#EB6242" opacity="1.000000" stroke="none" 
	d="
M89.943863,122.608940 
	C87.100143,122.834442 85.341171,118.186066 81.364120,120.964722 
	C81.002533,114.725586 80.879257,108.443176 81.075706,102.170776 
	C81.133415,100.328018 82.097717,98.513649 82.825073,96.342194 
	C83.327362,96.101372 83.588890,96.290604 83.897964,96.785591 
	C85.972488,105.408646 87.937248,113.811920 89.943863,122.608940 
z"/>
<path fill="#58B6A9" opacity="1.000000" stroke="none" 
	d="
M124.567863,75.000671 
	C125.327927,76.620041 125.662880,78.239479 125.564407,80.334442 
	C121.441109,80.805481 117.751236,80.801003 114.041222,80.420418 
	C114.005478,79.026947 113.989868,78.009583 113.984863,76.746277 
	C113.995461,76.500336 114.028763,76.009125 114.028763,76.009125 
	C117.400093,75.672997 120.771423,75.336868 124.567863,75.000671 
z"/>
<path fill="#438FA6" opacity="1.000000" stroke="none" 
	d="
M113.746613,75.780663 
	C114.028763,76.009125 113.995461,76.500336 113.575493,76.746101 
	C110.769157,77.334412 108.382797,77.676964 105.996429,78.019508 
	C104.481438,77.856194 102.966446,77.692871 101.194687,77.247543 
	C104.644989,75.582840 108.352074,74.200157 112.436157,72.757202 
	C113.030258,73.648689 113.247353,74.600441 113.746613,75.780663 
z"/>
<path fill="#9EA861" opacity="1.000000" stroke="none" 
	d="
M114.061356,80.796524 
	C117.751236,80.801003 121.441109,80.805481 125.581253,80.690170 
	C127.402946,80.421890 128.774368,80.273422 130.562469,80.328140 
	C130.979126,80.531319 131.101974,81.007301 131.101974,81.007301 
	C128.014648,82.634735 124.927315,84.262169 121.500778,85.936737 
	C118.299110,85.521027 115.436646,85.058167 112.285095,83.955688 
	C112.007233,82.562096 112.018456,81.808136 112.369316,81.021866 
	C113.159752,80.925224 113.610550,80.860878 114.061356,80.796524 
z"/>
<path fill="#58B6A9" opacity="1.000000" stroke="none" 
	d="
M131.327942,80.966515 
	C131.101974,81.007301 130.979126,80.531319 130.912109,80.294884 
	C131.158356,80.050346 131.434601,80.147415 131.812744,80.522873 
	C131.951599,80.696083 131.553909,80.925728 131.327942,80.966515 
z"/>
<path fill="#879657" opacity="1.000000" stroke="none" 
	d="
M112.029678,81.054169 
	C112.018456,81.808136 112.007233,82.562096 111.988815,83.694534 
	C107.886124,83.702057 103.790634,83.331123 99.269363,82.845009 
	C100.957382,82.150734 103.071175,81.571632 106.032066,80.983856 
	C108.596001,81.001511 110.312836,81.027840 112.029678,81.054169 
z"/>
<path fill="#295678" opacity="1.000000" stroke="none" 
	d="
M54.973297,76.038063 
	C53.344849,73.580353 51.716396,71.122650 50.068954,68.310089 
	C55.460403,69.712906 59.982521,72.506508 62.017357,78.583725 
	C61.266430,78.972771 60.507160,78.988457 59.117996,79.008087 
	C58.320606,79.009583 58.153111,79.007126 57.865185,78.719727 
	C56.820938,77.635880 55.897118,76.836975 54.973297,76.038063 
z"/>
<path fill="#9E7D69" opacity="1.000000" stroke="none" 
	d="
M52.928482,113.542847 
	C52.730701,113.884743 52.553986,113.907509 52.110359,113.955719 
	C52.004681,113.369812 52.165913,112.758453 52.630558,112.044739 
	C52.939163,112.369492 52.944355,112.796600 52.928482,113.542847 
z"/>
<path fill="#44988B" opacity="1.000000" stroke="none" 
	d="
M57.985611,79.004669 
	C58.153111,79.007126 58.320606,79.009583 58.738998,79.025146 
	C59.058933,79.873871 59.127972,80.709480 59.122036,81.806839 
	C57.617340,82.714851 56.187622,83.361122 54.390800,84.018227 
	C52.596508,83.698303 51.169319,83.367554 49.371487,82.630630 
	C49.000973,81.151772 49.001106,80.079079 49.450829,79.002625 
	C52.595478,79.000809 55.290546,79.002739 57.985611,79.004669 
z"/>
<path fill="#53A798" opacity="1.000000" stroke="none" 
	d="
M112.369308,81.021866 
	C110.312836,81.027840 108.596001,81.001511 106.452316,80.957268 
	C106.015320,80.209511 106.005165,79.479675 105.995720,78.384674 
	C108.382797,77.676964 110.769157,77.334412 113.564896,76.992043 
	C113.989868,78.009583 114.005478,79.026947 114.041222,80.420418 
	C113.610550,80.860878 113.159752,80.925224 112.369308,81.021866 
z"/>
<path fill="#E84A3F" opacity="1.000000" stroke="none" 
	d="
M103.397171,102.721115 
	C103.558128,102.848434 103.581543,103.068672 103.604950,103.288910 
	C103.489845,103.130615 103.374741,102.972321 103.397171,102.721115 
z"/>
<path fill="#4CA69F" opacity="1.000000" stroke="none" 
	d="
M49.001240,79.006378 
	C49.001106,80.079079 49.000973,81.151772 49.001480,82.627914 
	C46.094246,83.710838 43.186375,84.390327 39.831821,85.128738 
	C39.068665,85.221832 38.769299,85.165276 38.428505,84.593750 
	C38.909107,82.126923 39.448257,80.084320 39.987404,78.041718 
	C41.055508,78.033615 42.123615,78.025513 43.932716,78.158211 
	C46.116219,78.534805 47.558731,78.770592 49.001240,79.006378 
z"/>
<path fill="#51AFAC" opacity="1.000000" stroke="none" 
	d="
M39.527214,78.029434 
	C39.448257,80.084320 38.909107,82.126923 38.223957,84.481857 
	C34.793072,82.748550 31.508188,80.702896 28.060738,78.359108 
	C31.621119,78.046364 35.344070,78.031754 39.527214,78.029434 
z"/>
<path fill="#3981A6" opacity="1.000000" stroke="none" 
	d="
M49.450829,79.002625 
	C47.558731,78.770592 46.116219,78.534805 44.333282,78.157181 
	C43.990894,76.631897 43.988926,75.248459 43.976124,73.452087 
	C45.070770,73.360832 46.176250,73.682510 47.630943,74.011505 
	C50.054188,74.688843 52.128216,75.358849 54.587769,76.033463 
	C55.897118,76.836975 56.820938,77.635880 57.865185,78.719727 
	C55.290546,79.002739 52.595478,79.000809 49.450829,79.002625 
z"/>
</svg>